<?xml version="1.0" encoding="UTF-8" standalone="no"?>
<!-- Created with PhysiCell (http://PhysiCell.MathCancer.org/) -->
<svg 
 xmlns:dc="http://purl.org/dc/elements/1.1/" 
 xmlns:cc="http://creativecommons.org/ns#" 
 xmlns:rdf="http://www.w3.org/1999/02/22-rdf-syntax-ns#" 
 xmlns:svg="http://www.w3.org/2000/svg" 
 xmlns="http://www.w3.org/2000/svg" 
 version="1.1" 
 width="1200" 
 height="749" 
 id="svg2">
  <rect x="0" y="0" width="1200" height="749" stroke-width="1.4" stroke="white" fill="white"/>
  <text x="8.75" y="21"
   font-family="Arial" font-size="17.5" fill="black" >
   Current time: 4 days, 0 hours, and 0.10 minutes, z = 0.00 &#956;m
  </text>
  <text x="8.75" y="40.25"
   font-family="Arial" font-size="16.625" fill="black" >
   236 agents
  </text>
 <g id="tissue" 
    transform="translate(0,749) scale(1,-1)">
  <g id="ECM">
  </g>
  <g id="cells">
   <g id="cell25">
  <circle cx="255.882" cy="119.83" r="8.02172" stroke-width="0.5" stroke="black" fill="grey"/>
  <circle cx="255.882" cy="119.83" r="4.36965" stroke-width="0.5" stroke="grey" fill="grey"/>
   </g>
   <g id="cell47">
  <circle cx="245.912" cy="307.982" r="8.09164" stroke-width="0.5" stroke="black" fill="grey"/>
  <circle cx="245.912" cy="307.982" r="4.49671" stroke-width="0.5" stroke="grey" fill="grey"/>
   </g>
   <g id="cell48">
  <circle cx="459.836" cy="98.5747" r="6.48021" stroke-width="0.5" stroke="black" fill="grey"/>
   </g>
   <g id="cell50">
  <circle cx="80.9349" cy="222.055" r="8.39827" stroke-width="0.5" stroke="black" fill="grey"/>
  <circle cx="80.9349" cy="222.055" r="5.02759" stroke-width="0.5" stroke="grey" fill="grey"/>
   </g>
   <g id="cell51">
  <circle cx="316.07" cy="283.698" r="4.65241" stroke-width="0.5" stroke="black" fill="grey"/>
   </g>
   <g id="cell59">
  <circle cx="624.916" cy="313.558" r="7.45724" stroke-width="0.5" stroke="black" fill="grey"/>
  <circle cx="624.916" cy="313.558" r="3.2181" stroke-width="0.5" stroke="grey" fill="grey"/>
   </g>
   <g id="cell63">
  <circle cx="767.082" cy="239.611" r="8.34174" stroke-width="0.5" stroke="black" fill="grey"/>
  <circle cx="767.082" cy="239.611" r="4.93258" stroke-width="0.5" stroke="grey" fill="grey"/>
   </g>
   <g id="cell67">
  <circle cx="832.511" cy="230.22" r="7.29358" stroke-width="0.5" stroke="black" fill="grey"/>
  <circle cx="832.511" cy="230.22" r="2.81817" stroke-width="0.5" stroke="grey" fill="grey"/>
   </g>
   <g id="cell71">
  <circle cx="241.799" cy="219.91" r="1.22867" stroke-width="0.5" stroke="black" fill="grey"/>
   </g>
   <g id="cell75">
  <circle cx="365.253" cy="103.002" r="8.16946" stroke-width="0.5" stroke="black" fill="grey"/>
  <circle cx="365.253" cy="103.002" r="4.63528" stroke-width="0.5" stroke="grey" fill="grey"/>
   </g>
   <g id="cell77">
  <circle cx="448.729" cy="234.506" r="3.43568" stroke-width="0.5" stroke="black" fill="grey"/>
   </g>
   <g id="cell85">
  <circle cx="687.759" cy="34.5186" r="8.1477" stroke-width="0.5" stroke="black" fill="grey"/>
  <circle cx="687.759" cy="34.5186" r="4.59682" stroke-width="0.5" stroke="grey" fill="grey"/>
   </g>
   <g id="cell91">
  <circle cx="1028.07" cy="90.3185" r="8.27314" stroke-width="0.5" stroke="black" fill="grey"/>
  <circle cx="1028.07" cy="90.3185" r="4.81566" stroke-width="0.5" stroke="grey" fill="grey"/>
   </g>
   <g id="cell93">
  <circle cx="997.942" cy="177.668" r="7.84497" stroke-width="0.5" stroke="black" fill="grey"/>
  <circle cx="997.942" cy="177.668" r="4.03601" stroke-width="0.5" stroke="grey" fill="grey"/>
   </g>
   <g id="cell122">
  <circle cx="509.809" cy="166.12" r="7.44157" stroke-width="0.5" stroke="black" fill="grey"/>
  <circle cx="509.809" cy="166.12" r="3.18161" stroke-width="0.5" stroke="grey" fill="grey"/>
   </g>
   <g id="cell131">
  <circle cx="558.775" cy="351.894" r="8.40149" stroke-width="0.5" stroke="black" fill="grey"/>
  <circle cx="558.775" cy="351.894" r="5.03296" stroke-width="0.5" stroke="grey" fill="grey"/>
   </g>
   <g id="cell140">
  <circle cx="815.94" cy="60.5674" r="4.08602" stroke-width="0.5" stroke="black" fill="grey"/>
   </g>
   <g id="cell144">
  <circle cx="719.279" cy="132.147" r="7.72469" stroke-width="0.5" stroke="black" fill="grey"/>
  <circle cx="719.279" cy="132.147" r="3.79693" stroke-width="0.5" stroke="grey" fill="grey"/>
   </g>
   <g id="cell150">
  <circle cx="610.116" cy="237.68" r="2.48877" stroke-width="0.5" stroke="black" fill="grey"/>
   </g>
   <g id="cell162">
  <circle cx="344.948" cy="90.3938" r="6.32934" stroke-width="0.5" stroke="black" fill="grey"/>
   </g>
   <g id="cell163">
  <circle cx="850.557" cy="161.469" r="8.17575" stroke-width="0.5" stroke="black" fill="grey"/>
  <circle cx="850.557" cy="161.469" r="4.64635" stroke-width="0.5" stroke="grey" fill="grey"/>
   </g>
   <g id="cell165">
  <circle cx="1079.46" cy="180.841" r="8.4099" stroke-width="0.5" stroke="black" fill="grey"/>
  <circle cx="1079.46" cy="180.841" r="5.047" stroke-width="0.5" stroke="grey" fill="grey"/>
   </g>
   <g id="cell170">
  <circle cx="146.876" cy="318.926" r="2.85366" stroke-width="0.5" stroke="black" fill="grey"/>
   </g>
   <g id="cell172">
  <circle cx="998.451" cy="222.565" r="7.80775" stroke-width="0.5" stroke="black" fill="grey"/>
  <circle cx="998.451" cy="222.565" r="3.96317" stroke-width="0.5" stroke="grey" fill="grey"/>
   </g>
   <g id="cell180">
  <circle cx="347.964" cy="268.881" r="5.22623" stroke-width="0.5" stroke="black" fill="grey"/>
   </g>
   <g id="cell184">
  <circle cx="83.83" cy="321.765" r="5.10905" stroke-width="0.5" stroke="black" fill="grey"/>
   </g>
   <g id="cell193">
  <circle cx="408.721" cy="199.073" r="6.83867" stroke-width="0.5" stroke="black" fill="grey"/>
  <circle cx="408.721" cy="199.073" r="1.23009" stroke-width="0.5" stroke="grey" fill="grey"/>
   </g>
   <g id="cell199">
  <circle cx="527.491" cy="71.499" r="8.21764" stroke-width="0.5" stroke="black" fill="grey"/>
  <circle cx="527.491" cy="71.499" r="4.71967" stroke-width="0.5" stroke="grey" fill="grey"/>
   </g>
   <g id="cell201">
  <circle cx="666.574" cy="240.903" r="5.72889" stroke-width="0.5" stroke="black" fill="grey"/>
   </g>
   <g id="cell215">
  <circle cx="351.825" cy="211.579" r="8.00845" stroke-width="0.5" stroke="black" fill="grey"/>
  <circle cx="351.825" cy="211.579" r="4.34523" stroke-width="0.5" stroke="grey" fill="grey"/>
   </g>
   <g id="cell219">
  <circle cx="319.535" cy="322.27" r="4.17366" stroke-width="0.5" stroke="black" fill="grey"/>
   </g>
   <g id="cell222">
  <circle cx="345.742" cy="11.0781" r="7.75554" stroke-width="0.5" stroke="black" fill="grey"/>
  <circle cx="345.742" cy="11.0781" r="3.8593" stroke-width="0.5" stroke="grey" fill="grey"/>
   </g>
   <g id="cell233">
  <circle cx="741.102" cy="205.402" r="7.11825" stroke-width="0.5" stroke="black" fill="grey"/>
  <circle cx="741.102" cy="205.402" r="2.32707" stroke-width="0.5" stroke="grey" fill="grey"/>
   </g>
  </g>
 </g>
  <rect x="982.5" y="724.5" width="200" height="7" stroke-width="1.4" stroke="rgb(255,255,255)" fill="rgb(0,0,0)"/>
  <text x="986.875" y="720.125"
   font-family="Arial" font-size="17.5" fill="black" >
   200 &#956;m
  </text>
  <text x="17.5" y="731.5"
   font-family="Arial" font-size="13.125" fill="black" >
   0 days, 0 hours, 1 minutes, and 24.2566 seconds
  </text>
  <rect x="0" y="49" width="1200" height="700" stroke-width="1.4" stroke="rgb(0,0,0)" fill="none"/>
</svg>
