<?xml version="1.0" encoding="UTF-8" standalone="no"?>
<!-- Created with PhysiCell (http://PhysiCell.MathCancer.org/) -->
<svg 
 xmlns:dc="http://purl.org/dc/elements/1.1/" 
 xmlns:cc="http://creativecommons.org/ns#" 
 xmlns:rdf="http://www.w3.org/1999/02/22-rdf-syntax-ns#" 
 xmlns:svg="http://www.w3.org/2000/svg" 
 xmlns="http://www.w3.org/2000/svg" 
 version="1.1" 
 width="1200" 
 height="1498" 
 id="svg2">
  <rect x="0" y="0" width="1200" height="1498" stroke-width="2.8" stroke="white" fill="white"/>
  <text x="17.5" y="42"
   font-family="Arial" font-size="35" fill="black" >
   Current time: 4 days, 0 hours, and 0.10 minutes, z = 0.00 &#956;m
  </text>
  <text x="17.5" y="80.5"
   font-family="Arial" font-size="33.25" fill="black" >
   236 agents
  </text>
 <g id="tissue" 
    transform="translate(0,1498) scale(1,-1)">
  <g id="ECM">
  </g>
  <g id="cells">
   <g id="cell25">
  <circle cx="293.394" cy="88.5814" r="5.76815" stroke-width="0.5" stroke="black" fill="grey"/>
   </g>
   <g id="cell36">
  <circle cx="762.078" cy="324.887" r="7.18047" stroke-width="0.5" stroke="black" fill="grey"/>
  <circle cx="762.078" cy="324.887" r="2.51095" stroke-width="0.5" stroke="grey" fill="grey"/>
   </g>
   <g id="cell45">
  <circle cx="883.896" cy="199.689" r="4.83984" stroke-width="0.5" stroke="black" fill="grey"/>
   </g>
   <g id="cell49">
  <circle cx="266.186" cy="136.284" r="6.36069" stroke-width="0.5" stroke="black" fill="grey"/>
   </g>
   <g id="cell50">
  <circle cx="382.435" cy="209.469" r="8.35523" stroke-width="0.5" stroke="black" fill="grey"/>
  <circle cx="382.435" cy="209.469" r="4.95536" stroke-width="0.5" stroke="grey" fill="grey"/>
   </g>
   <g id="cell55">
  <circle cx="390.854" cy="131.817" r="6.55697" stroke-width="0.5" stroke="black" fill="grey"/>
   </g>
   <g id="cell58">
  <circle cx="687.374" cy="220.227" r="8.30042" stroke-width="0.5" stroke="black" fill="grey"/>
  <circle cx="687.374" cy="220.227" r="4.86238" stroke-width="0.5" stroke="grey" fill="grey"/>
   </g>
   <g id="cell62">
  <circle cx="754.654" cy="129.659" r="8.02675" stroke-width="0.5" stroke="black" fill="grey"/>
  <circle cx="754.654" cy="129.659" r="4.37887" stroke-width="0.5" stroke="grey" fill="grey"/>
   </g>
   <g id="cell65">
  <circle cx="838.697" cy="98.6923" r="8.24346" stroke-width="0.5" stroke="black" fill="grey"/>
  <circle cx="838.697" cy="98.6923" r="4.7645" stroke-width="0.5" stroke="grey" fill="grey"/>
   </g>
   <g id="cell66">
  <circle cx="841.261" cy="249.012" r="7.08373" stroke-width="0.5" stroke="black" fill="grey"/>
  <circle cx="841.261" cy="249.012" r="2.21923" stroke-width="0.5" stroke="grey" fill="grey"/>
   </g>
   <g id="cell71">
  <circle cx="178.652" cy="198.069" r="7.57279" stroke-width="0.5" stroke="black" fill="grey"/>
  <circle cx="178.652" cy="198.069" r="3.47748" stroke-width="0.5" stroke="grey" fill="grey"/>
   </g>
   <g id="cell81">
  <circle cx="532.033" cy="348.214" r="7.36154" stroke-width="0.5" stroke="black" fill="grey"/>
  <circle cx="532.033" cy="348.214" r="2.98964" stroke-width="0.5" stroke="grey" fill="grey"/>
   </g>
   <g id="cell82">
  <circle cx="621.619" cy="329.577" r="2.46798" stroke-width="0.5" stroke="black" fill="grey"/>
   </g>
   <g id="cell85">
  <circle cx="642.072" cy="53.731" r="7.25834" stroke-width="0.5" stroke="black" fill="grey"/>
  <circle cx="642.072" cy="53.731" r="2.72566" stroke-width="0.5" stroke="grey" fill="grey"/>
   </g>
   <g id="cell87">
  <circle cx="683.928" cy="66.9969" r="7.10035" stroke-width="0.5" stroke="black" fill="grey"/>
  <circle cx="683.928" cy="66.9969" r="2.27171" stroke-width="0.5" stroke="grey" fill="grey"/>
   </g>
   <g id="cell88">
  <circle cx="753.813" cy="47.3097" r="8.34623" stroke-width="0.5" stroke="black" fill="grey"/>
  <circle cx="753.813" cy="47.3097" r="4.94017" stroke-width="0.5" stroke="grey" fill="grey"/>
   </g>
   <g id="cell116">
  <circle cx="947.317" cy="223.966" r="7.13279" stroke-width="0.5" stroke="black" fill="grey"/>
  <circle cx="947.317" cy="223.966" r="2.37118" stroke-width="0.5" stroke="grey" fill="grey"/>
   </g>
   <g id="cell126">
  <circle cx="520.088" cy="304.037" r="8.41141" stroke-width="0.5" stroke="black" fill="grey"/>
  <circle cx="520.088" cy="304.037" r="5.04951" stroke-width="0.5" stroke="grey" fill="grey"/>
   </g>
   <g id="cell141">
  <circle cx="657.708" cy="85.8574" r="8.09589" stroke-width="0.5" stroke="black" fill="grey"/>
  <circle cx="657.708" cy="85.8574" r="4.50436" stroke-width="0.5" stroke="grey" fill="grey"/>
   </g>
   <g id="cell146">
  <circle cx="887.252" cy="188.554" r="8.23082" stroke-width="0.5" stroke="black" fill="grey"/>
  <circle cx="887.252" cy="188.554" r="4.74259" stroke-width="0.5" stroke="grey" fill="grey"/>
   </g>
   <g id="cell154">
  <circle cx="336.73" cy="72.4533" r="8.00533" stroke-width="0.5" stroke="black" fill="grey"/>
  <circle cx="336.73" cy="72.4533" r="4.33948" stroke-width="0.5" stroke="grey" fill="grey"/>
   </g>
   <g id="cell161">
  <circle cx="250.394" cy="192.109" r="4.5782" stroke-width="0.5" stroke="black" fill="grey"/>
   </g>
   <g id="cell163">
  <circle cx="276.716" cy="171.799" r="7.37194" stroke-width="0.5" stroke="black" fill="grey"/>
  <circle cx="276.716" cy="171.799" r="3.01516" stroke-width="0.5" stroke="grey" fill="grey"/>
   </g>
   <g id="cell175">
  <circle cx="410.391" cy="88.5133" r="7.82347" stroke-width="0.5" stroke="black" fill="grey"/>
  <circle cx="410.391" cy="88.5133" r="3.99405" stroke-width="0.5" stroke="grey" fill="grey"/>
   </g>
   <g id="cell186">
  <circle cx="610.728" cy="43.3927" r="8.41093" stroke-width="0.5" stroke="black" fill="grey"/>
  <circle cx="610.728" cy="43.3927" r="5.04871" stroke-width="0.5" stroke="grey" fill="grey"/>
   </g>
   <g id="cell198">
  <circle cx="515.735" cy="39.1841" r="7.30438" stroke-width="0.5" stroke="black" fill="grey"/>
  <circle cx="515.735" cy="39.1841" r="2.84601" stroke-width="0.5" stroke="grey" fill="grey"/>
   </g>
   <g id="cell206">
  <circle cx="585.454" cy="136.243" r="8.22977" stroke-width="0.5" stroke="black" fill="grey"/>
  <circle cx="585.454" cy="136.243" r="4.74077" stroke-width="0.5" stroke="grey" fill="grey"/>
   </g>
   <g id="cell209">
  <circle cx="350.352" cy="231.256" r="2.8011" stroke-width="0.5" stroke="black" fill="grey"/>
   </g>
   <g id="cell227">
  <circle cx="485.969" cy="219.578" r="3.4828" stroke-width="0.5" stroke="black" fill="grey"/>
   </g>
  </g>
 </g>
  <rect x="965" y="1449" width="200" height="14" stroke-width="2.8" stroke="rgb(255,255,255)" fill="rgb(0,0,0)"/>
  <text x="973.75" y="1440.25"
   font-family="Arial" font-size="35" fill="black" >
   200 &#956;m
  </text>
  <text x="35" y="1463"
   font-family="Arial" font-size="26.25" fill="black" >
   0 days, 0 hours, 6 minutes, and 9.5747 seconds
  </text>
  <rect x="0" y="98" width="1200" height="1400" stroke-width="2.8" stroke="rgb(0,0,0)" fill="none"/>
</svg>
