<?xml version="1.0" encoding="UTF-8" standalone="no"?>
<!-- Created with PhysiCell (http://PhysiCell.MathCancer.org/) -->
<svg 
 xmlns:dc="http://purl.org/dc/elements/1.1/" 
 xmlns:cc="http://creativecommons.org/ns#" 
 xmlns:rdf="http://www.w3.org/1999/02/22-rdf-syntax-ns#" 
 xmlns:svg="http://www.w3.org/2000/svg" 
 xmlns="http://www.w3.org/2000/svg" 
 version="1.1" 
 width="1200" 
 height="1498" 
 id="svg2">
  <rect x="0" y="0" width="1200" height="1498" stroke-width="2.8" stroke="white" fill="white"/>
  <text x="17.5" y="42"
   font-family="Arial" font-size="35" fill="black" >
   Current time: 4 days, 0 hours, and 0.10 minutes, z = 0.00 &#956;m
  </text>
  <text x="17.5" y="80.5"
   font-family="Arial" font-size="33.25" fill="black" >
   234 agents
  </text>
 <g id="tissue" 
    transform="translate(0,1498) scale(1,-1)">
  <g id="ECM">
  </g>
  <g id="cells">
   <g id="cell6">
  <circle cx="719.459" cy="405.575" r="6.13078" stroke-width="0.5" stroke="black" fill="grey"/>
   </g>
   <g id="cell32">
  <circle cx="476.026" cy="499.87" r="2.31271" stroke-width="0.5" stroke="black" fill="grey"/>
   </g>
   <g id="cell41">
  <circle cx="903.398" cy="11.1627" r="1.43138" stroke-width="0.5" stroke="black" fill="grey"/>
   </g>
   <g id="cell52">
  <circle cx="383.359" cy="130.338" r="5.14212" stroke-width="0.5" stroke="black" fill="grey"/>
   </g>
   <g id="cell56">
  <circle cx="321.011" cy="332.529" r="7.30905" stroke-width="0.5" stroke="black" fill="grey"/>
  <circle cx="321.011" cy="332.529" r="2.85796" stroke-width="0.5" stroke="grey" fill="grey"/>
   </g>
   <g id="cell68">
  <circle cx="893.848" cy="279.766" r="7.05044" stroke-width="0.5" stroke="black" fill="grey"/>
  <circle cx="893.848" cy="279.766" r="2.11054" stroke-width="0.5" stroke="grey" fill="grey"/>
   </g>
   <g id="cell69">
  <circle cx="849.219" cy="176.071" r="8.29766" stroke-width="0.5" stroke="black" fill="grey"/>
  <circle cx="849.219" cy="176.071" r="4.85767" stroke-width="0.5" stroke="grey" fill="grey"/>
   </g>
   <g id="cell77">
  <circle cx="359.154" cy="77.579" r="6.24486" stroke-width="0.5" stroke="black" fill="grey"/>
   </g>
   <g id="cell92">
  <circle cx="1050" cy="284.571" r="7.87259" stroke-width="0.5" stroke="black" fill="grey"/>
  <circle cx="1050" cy="284.571" r="4.08942" stroke-width="0.5" stroke="grey" fill="grey"/>
   </g>
   <g id="cell97">
  <circle cx="353.859" cy="241.605" r="3.39935" stroke-width="0.5" stroke="black" fill="grey"/>
   </g>
   <g id="cell106">
  <circle cx="681.171" cy="408.993" r="4.82199" stroke-width="0.5" stroke="black" fill="grey"/>
   </g>
   <g id="cell113">
  <circle cx="962.799" cy="41.966" r="7.54071" stroke-width="0.5" stroke="black" fill="grey"/>
  <circle cx="962.799" cy="41.966" r="3.40706" stroke-width="0.5" stroke="grey" fill="grey"/>
   </g>
   <g id="cell123">
  <circle cx="447.518" cy="337.931" r="8.40159" stroke-width="0.5" stroke="black" fill="grey"/>
  <circle cx="447.518" cy="337.931" r="5.03314" stroke-width="0.5" stroke="grey" fill="grey"/>
   </g>
   <g id="cell166">
  <circle cx="363.924" cy="341.407" r="8.19734" stroke-width="0.5" stroke="black" fill="grey"/>
  <circle cx="363.924" cy="341.407" r="4.68425" stroke-width="0.5" stroke="grey" fill="grey"/>
   </g>
   <g id="cell172">
  <circle cx="444.812" cy="19.8191" r="8.03874" stroke-width="0.5" stroke="black" fill="grey"/>
  <circle cx="444.812" cy="19.8191" r="4.4008" stroke-width="0.5" stroke="grey" fill="grey"/>
   </g>
   <g id="cell182">
  <circle cx="591.635" cy="275.559" r="7.42516" stroke-width="0.5" stroke="black" fill="grey"/>
  <circle cx="591.635" cy="275.559" r="3.14306" stroke-width="0.5" stroke="grey" fill="grey"/>
   </g>
   <g id="cell186">
  <circle cx="631.754" cy="306.499" r="7.91579" stroke-width="0.5" stroke="black" fill="grey"/>
  <circle cx="631.754" cy="306.499" r="4.17199" stroke-width="0.5" stroke="grey" fill="grey"/>
   </g>
   <g id="cell191">
  <circle cx="550.932" cy="294.591" r="5.52194" stroke-width="0.5" stroke="black" fill="grey"/>
   </g>
   <g id="cell193">
  <circle cx="1021.81" cy="53.5926" r="3.625" stroke-width="0.5" stroke="black" fill="grey"/>
   </g>
   <g id="cell204">
  <circle cx="234.105" cy="271.32" r="7.95477" stroke-width="0.5" stroke="black" fill="grey"/>
  <circle cx="234.105" cy="271.32" r="4.24548" stroke-width="0.5" stroke="grey" fill="grey"/>
   </g>
   <g id="cell205">
  <circle cx="451.5" cy="413.074" r="8.32831" stroke-width="0.5" stroke="black" fill="grey"/>
  <circle cx="451.5" cy="413.074" r="4.90985" stroke-width="0.5" stroke="grey" fill="grey"/>
   </g>
   <g id="cell215">
  <circle cx="935.641" cy="225.174" r="1.85654" stroke-width="0.5" stroke="black" fill="grey"/>
   </g>
   <g id="cell222">
  <circle cx="458.177" cy="258.766" r="8.41257" stroke-width="0.5" stroke="black" fill="grey"/>
  <circle cx="458.177" cy="258.766" r="5.05144" stroke-width="0.5" stroke="grey" fill="grey"/>
   </g>
   <g id="cell224">
  <circle cx="546.991" cy="197.571" r="7.82946" stroke-width="0.5" stroke="black" fill="grey"/>
  <circle cx="546.991" cy="197.571" r="4.00576" stroke-width="0.5" stroke="grey" fill="grey"/>
   </g>
   <g id="cell226">
  <circle cx="976.383" cy="297.909" r="7.7286" stroke-width="0.5" stroke="black" fill="grey"/>
  <circle cx="976.383" cy="297.909" r="3.80486" stroke-width="0.5" stroke="grey" fill="grey"/>
   </g>
   <g id="cell227">
  <circle cx="361.028" cy="211.17" r="6.72928" stroke-width="0.5" stroke="black" fill="grey"/>
  <circle cx="361.028" cy="211.17" r="0.170045" stroke-width="0.5" stroke="grey" fill="grey"/>
   </g>
  </g>
 </g>
  <rect x="965" y="1449" width="200" height="14" stroke-width="2.8" stroke="rgb(255,255,255)" fill="rgb(0,0,0)"/>
  <text x="973.75" y="1440.25"
   font-family="Arial" font-size="35" fill="black" >
   200 &#956;m
  </text>
  <text x="35" y="1463"
   font-family="Arial" font-size="26.25" fill="black" >
   0 days, 0 hours, 5 minutes, and 30.2620 seconds
  </text>
  <rect x="0" y="98" width="1200" height="1400" stroke-width="2.8" stroke="rgb(0,0,0)" fill="none"/>
</svg>
