<?xml version="1.0" encoding="UTF-8" standalone="no"?>
<!-- Created with PhysiCell (http://PhysiCell.MathCancer.org/) -->
<svg 
 xmlns:dc="http://purl.org/dc/elements/1.1/" 
 xmlns:cc="http://creativecommons.org/ns#" 
 xmlns:rdf="http://www.w3.org/1999/02/22-rdf-syntax-ns#" 
 xmlns:svg="http://www.w3.org/2000/svg" 
 xmlns="http://www.w3.org/2000/svg" 
 version="1.1" 
 width="1200" 
 height="749" 
 id="svg2">
  <rect x="0" y="0" width="1200" height="749" stroke-width="1.4" stroke="white" fill="white"/>
  <text x="8.75" y="21"
   font-family="Arial" font-size="17.5" fill="black" >
   Current time: 4 days, 0 hours, and 0.10 minutes, z = 0.00 &#956;m
  </text>
  <text x="8.75" y="40.25"
   font-family="Arial" font-size="16.625" fill="black" >
   236 agents
  </text>
 <g id="tissue" 
    transform="translate(0,749) scale(1,-1)">
  <g id="ECM">
  </g>
  <g id="cells">
   <g id="cell32">
  <circle cx="471.174" cy="174.758" r="8.39207" stroke-width="0.5" stroke="black" fill="grey"/>
  <circle cx="471.174" cy="174.758" r="5.01723" stroke-width="0.5" stroke="grey" fill="grey"/>
   </g>
   <g id="cell33">
  <circle cx="626.086" cy="194.927" r="6.97132" stroke-width="0.5" stroke="black" fill="grey"/>
  <circle cx="626.086" cy="194.927" r="1.82895" stroke-width="0.5" stroke="grey" fill="grey"/>
   </g>
   <g id="cell42">
  <circle cx="904.451" cy="123.075" r="6.76337" stroke-width="0.5" stroke="black" fill="grey"/>
  <circle cx="904.451" cy="123.075" r="0.699238" stroke-width="0.5" stroke="grey" fill="grey"/>
   </g>
   <g id="cell45">
  <circle cx="1014.56" cy="133.808" r="7.7906" stroke-width="0.5" stroke="black" fill="grey"/>
  <circle cx="1014.56" cy="133.808" r="3.92927" stroke-width="0.5" stroke="grey" fill="grey"/>
   </g>
   <g id="cell47">
  <circle cx="287.231" cy="187.331" r="8.23389" stroke-width="0.5" stroke="black" fill="grey"/>
  <circle cx="287.231" cy="187.331" r="4.74791" stroke-width="0.5" stroke="grey" fill="grey"/>
   </g>
   <g id="cell53">
  <circle cx="438.229" cy="99.4185" r="8.17629" stroke-width="0.5" stroke="black" fill="grey"/>
  <circle cx="438.229" cy="99.4185" r="4.64731" stroke-width="0.5" stroke="grey" fill="grey"/>
   </g>
   <g id="cell55">
  <circle cx="573.876" cy="171.759" r="8.3083" stroke-width="0.5" stroke="black" fill="grey"/>
  <circle cx="573.876" cy="171.759" r="4.87582" stroke-width="0.5" stroke="grey" fill="grey"/>
   </g>
   <g id="cell65">
  <circle cx="850.917" cy="112.298" r="7.56338" stroke-width="0.5" stroke="black" fill="grey"/>
  <circle cx="850.917" cy="112.298" r="3.45696" stroke-width="0.5" stroke="grey" fill="grey"/>
   </g>
   <g id="cell69">
  <circle cx="1011.69" cy="104.322" r="6.50397" stroke-width="0.5" stroke="black" fill="grey"/>
   </g>
   <g id="cell71">
  <circle cx="203.673" cy="25.2498" r="8.26078" stroke-width="0.5" stroke="black" fill="grey"/>
  <circle cx="203.673" cy="25.2498" r="4.7944" stroke-width="0.5" stroke="grey" fill="grey"/>
   </g>
   <g id="cell72">
  <circle cx="208.676" cy="89.2147" r="6.38415" stroke-width="0.5" stroke="black" fill="grey"/>
   </g>
   <g id="cell84">
  <circle cx="627.415" cy="49.0311" r="7.39272" stroke-width="0.5" stroke="black" fill="grey"/>
  <circle cx="627.415" cy="49.0311" r="3.06562" stroke-width="0.5" stroke="grey" fill="grey"/>
   </g>
   <g id="cell90">
  <circle cx="846.897" cy="147.753" r="7.87616" stroke-width="0.5" stroke="black" fill="grey"/>
  <circle cx="846.897" cy="147.753" r="4.0963" stroke-width="0.5" stroke="grey" fill="grey"/>
   </g>
   <g id="cell126">
  <circle cx="617.906" cy="104.45" r="5.78664" stroke-width="0.5" stroke="black" fill="grey"/>
   </g>
   <g id="cell136">
  <circle cx="800.685" cy="308.326" r="7.88298" stroke-width="0.5" stroke="black" fill="grey"/>
  <circle cx="800.685" cy="308.326" r="4.1094" stroke-width="0.5" stroke="grey" fill="grey"/>
   </g>
   <g id="cell140">
  <circle cx="193.669" cy="75.0822" r="8.09608" stroke-width="0.5" stroke="black" fill="grey"/>
  <circle cx="193.669" cy="75.0822" r="4.50469" stroke-width="0.5" stroke="grey" fill="grey"/>
   </g>
   <g id="cell145">
  <circle cx="1033.15" cy="225.769" r="5.85377" stroke-width="0.5" stroke="black" fill="grey"/>
   </g>
   <g id="cell146">
  <circle cx="573.168" cy="207.748" r="8.21388" stroke-width="0.5" stroke="black" fill="grey"/>
  <circle cx="573.168" cy="207.748" r="4.71313" stroke-width="0.5" stroke="grey" fill="grey"/>
   </g>
   <g id="cell155">
  <circle cx="717.658" cy="324.63" r="8.31989" stroke-width="0.5" stroke="black" fill="grey"/>
  <circle cx="717.658" cy="324.63" r="4.89554" stroke-width="0.5" stroke="grey" fill="grey"/>
   </g>
   <g id="cell157">
  <circle cx="677.634" cy="63.9887" r="3.68673" stroke-width="0.5" stroke="black" fill="grey"/>
   </g>
   <g id="cell165">
  <circle cx="790.18" cy="125.192" r="8.24003" stroke-width="0.5" stroke="black" fill="grey"/>
  <circle cx="790.18" cy="125.192" r="4.75856" stroke-width="0.5" stroke="grey" fill="grey"/>
   </g>
   <g id="cell187">
  <circle cx="659.075" cy="271.252" r="7.79457" stroke-width="0.5" stroke="black" fill="grey"/>
  <circle cx="659.075" cy="271.252" r="3.93714" stroke-width="0.5" stroke="grey" fill="grey"/>
   </g>
   <g id="cell188">
  <circle cx="851.282" cy="90.6915" r="8.19146" stroke-width="0.5" stroke="black" fill="grey"/>
  <circle cx="851.282" cy="90.6915" r="4.67395" stroke-width="0.5" stroke="grey" fill="grey"/>
   </g>
   <g id="cell192">
  <circle cx="717.783" cy="151.061" r="5.51263" stroke-width="0.5" stroke="black" fill="grey"/>
   </g>
   <g id="cell196">
  <circle cx="208.614" cy="170.167" r="8.24706" stroke-width="0.5" stroke="black" fill="grey"/>
  <circle cx="208.614" cy="170.167" r="4.77072" stroke-width="0.5" stroke="grey" fill="grey"/>
   </g>
   <g id="cell198">
  <circle cx="992.101" cy="49.3191" r="7.07754" stroke-width="0.5" stroke="black" fill="grey"/>
  <circle cx="992.101" cy="49.3191" r="2.1994" stroke-width="0.5" stroke="grey" fill="grey"/>
   </g>
   <g id="cell201">
  <circle cx="276.031" cy="89.2379" r="8.14484" stroke-width="0.5" stroke="black" fill="grey"/>
  <circle cx="276.031" cy="89.2379" r="4.59175" stroke-width="0.5" stroke="grey" fill="grey"/>
   </g>
   <g id="cell204">
  <circle cx="168.974" cy="111.908" r="8.372" stroke-width="0.5" stroke="black" fill="grey"/>
  <circle cx="168.974" cy="111.908" r="4.98359" stroke-width="0.5" stroke="grey" fill="grey"/>
   </g>
   <g id="cell211">
  <circle cx="171.454" cy="62.4406" r="7.24635" stroke-width="0.5" stroke="black" fill="grey"/>
  <circle cx="171.454" cy="62.4406" r="2.69358" stroke-width="0.5" stroke="grey" fill="grey"/>
   </g>
   <g id="cell220">
  <circle cx="390.682" cy="100.163" r="5.47595" stroke-width="0.5" stroke="black" fill="grey"/>
   </g>
   <g id="cell230">
  <circle cx="525.673" cy="57.8021" r="5.31944" stroke-width="0.5" stroke="black" fill="grey"/>
   </g>
  </g>
 </g>
  <rect x="982.5" y="724.5" width="200" height="7" stroke-width="1.4" stroke="rgb(255,255,255)" fill="rgb(0,0,0)"/>
  <text x="986.875" y="720.125"
   font-family="Arial" font-size="17.5" fill="black" >
   200 &#956;m
  </text>
  <text x="17.5" y="731.5"
   font-family="Arial" font-size="13.125" fill="black" >
   0 days, 0 hours, 1 minutes, and 39.2989 seconds
  </text>
  <rect x="0" y="49" width="1200" height="700" stroke-width="1.4" stroke="rgb(0,0,0)" fill="none"/>
</svg>
