<?xml version="1.0" encoding="UTF-8" standalone="no"?>
<!-- Created with PhysiCell (http://PhysiCell.MathCancer.org/) -->
<svg 
 xmlns:dc="http://purl.org/dc/elements/1.1/" 
 xmlns:cc="http://creativecommons.org/ns#" 
 xmlns:rdf="http://www.w3.org/1999/02/22-rdf-syntax-ns#" 
 xmlns:svg="http://www.w3.org/2000/svg" 
 xmlns="http://www.w3.org/2000/svg" 
 version="1.1" 
 width="1200" 
 height="1498" 
 id="svg2">
  <rect x="0" y="0" width="1200" height="1498" stroke-width="2.8" stroke="white" fill="white"/>
  <text x="17.5" y="42"
   font-family="Arial" font-size="35" fill="black" >
   Current time: 9 days, 0 hours, and 0.10 minutes, z = 0.00 &#956;m
  </text>
  <text x="17.5" y="80.5"
   font-family="Arial" font-size="33.25" fill="black" >
   1854 agents
  </text>
 <g id="tissue" 
    transform="translate(0,1498) scale(1,-1)">
  <g id="ECM">
  </g>
  <g id="cells">
   <g id="cell28">
  <circle cx="446.951" cy="312.661" r="6.44582" stroke-width="0.5" stroke="black" fill="grey"/>
   </g>
   <g id="cell32">
  <circle cx="387.079" cy="53.1145" r="3.52874" stroke-width="0.5" stroke="black" fill="grey"/>
   </g>
   <g id="cell40">
  <circle cx="724.27" cy="337.967" r="7.94757" stroke-width="0.5" stroke="black" fill="grey"/>
  <circle cx="724.27" cy="337.967" r="4.26629" stroke-width="0.5" stroke="grey" fill="grey"/>
   </g>
   <g id="cell41">
  <circle cx="749.603" cy="257.173" r="7.93078" stroke-width="0.5" stroke="black" fill="grey"/>
  <circle cx="749.603" cy="257.173" r="4.23492" stroke-width="0.5" stroke="grey" fill="grey"/>
   </g>
   <g id="cell51">
  <circle cx="342.531" cy="238.011" r="7.49743" stroke-width="0.5" stroke="black" fill="grey"/>
  <circle cx="342.531" cy="238.011" r="3.35391" stroke-width="0.5" stroke="grey" fill="grey"/>
   </g>
   <g id="cell53">
  <circle cx="400.495" cy="298.353" r="1.1398" stroke-width="0.5" stroke="black" fill="grey"/>
   </g>
   <g id="cell56">
  <circle cx="608.499" cy="274.995" r="8.24685" stroke-width="0.5" stroke="black" fill="grey"/>
  <circle cx="608.499" cy="274.995" r="4.80081" stroke-width="0.5" stroke="grey" fill="grey"/>
   </g>
   <g id="cell61">
  <circle cx="892.414" cy="624.31" r="1.12554" stroke-width="0.5" stroke="black" fill="grey"/>
   </g>
   <g id="cell69">
  <circle cx="927.172" cy="233.701" r="6.82967" stroke-width="0.5" stroke="black" fill="grey"/>
  <circle cx="927.172" cy="233.701" r="1.29679" stroke-width="0.5" stroke="grey" fill="grey"/>
   </g>
   <g id="cell82">
  <circle cx="605.907" cy="287.66" r="7.74428" stroke-width="0.5" stroke="black" fill="grey"/>
  <circle cx="605.907" cy="287.66" r="3.87442" stroke-width="0.5" stroke="grey" fill="grey"/>
   </g>
   <g id="cell83">
  <circle cx="746.278" cy="139.17" r="8.37625" stroke-width="0.5" stroke="black" fill="grey"/>
  <circle cx="746.278" cy="139.17" r="5.01984" stroke-width="0.5" stroke="grey" fill="grey"/>
   </g>
   <g id="cell88">
  <circle cx="871.067" cy="354.547" r="6.8263" stroke-width="0.5" stroke="black" fill="grey"/>
  <circle cx="871.067" cy="354.547" r="1.27892" stroke-width="0.5" stroke="grey" fill="grey"/>
   </g>
   <g id="cell94">
  <circle cx="122.714" cy="234.795" r="4.27215" stroke-width="0.5" stroke="black" fill="grey"/>
   </g>
   <g id="cell109">
  <circle cx="604.506" cy="209.101" r="5.60641" stroke-width="0.5" stroke="black" fill="grey"/>
   </g>
   <g id="cell110">
  <circle cx="790.55" cy="173.04" r="6.51793" stroke-width="0.5" stroke="black" fill="grey"/>
   </g>
   <g id="cell123">
  <circle cx="326.54" cy="336.597" r="8.31727" stroke-width="0.5" stroke="black" fill="grey"/>
  <circle cx="326.54" cy="336.597" r="4.92079" stroke-width="0.5" stroke="grey" fill="grey"/>
   </g>
   <g id="cell127">
  <circle cx="868.14" cy="479.785" r="8.3898" stroke-width="0.5" stroke="black" fill="grey"/>
  <circle cx="868.14" cy="479.785" r="5.04243" stroke-width="0.5" stroke="grey" fill="grey"/>
   </g>
   <g id="cell135">
  <circle cx="198.166" cy="220.736" r="5.29933" stroke-width="0.5" stroke="black" fill="grey"/>
   </g>
   <g id="cell136">
  <circle cx="563.553" cy="108.561" r="8.28264" stroke-width="0.5" stroke="black" fill="grey"/>
  <circle cx="563.553" cy="108.561" r="4.86203" stroke-width="0.5" stroke="grey" fill="grey"/>
   </g>
   <g id="cell145">
  <circle cx="669.344" cy="405.57" r="6.40495" stroke-width="0.5" stroke="black" fill="grey"/>
   </g>
   <g id="cell155">
  <circle cx="771.779" cy="322.061" r="7.65169" stroke-width="0.5" stroke="black" fill="grey"/>
  <circle cx="771.779" cy="322.061" r="3.68586" stroke-width="0.5" stroke="grey" fill="grey"/>
   </g>
   <g id="cell158">
  <circle cx="736.073" cy="531.465" r="7.05392" stroke-width="0.5" stroke="black" fill="grey"/>
  <circle cx="736.073" cy="531.465" r="2.18975" stroke-width="0.5" stroke="grey" fill="grey"/>
   </g>
   <g id="cell176">
  <circle cx="791.481" cy="326.95" r="4.86893" stroke-width="0.5" stroke="black" fill="grey"/>
   </g>
   <g id="cell200">
  <circle cx="257.187" cy="276.204" r="7.37529" stroke-width="0.5" stroke="black" fill="grey"/>
  <circle cx="257.187" cy="276.204" r="3.07119" stroke-width="0.5" stroke="grey" fill="grey"/>
   </g>
   <g id="cell202">
  <circle cx="347.321" cy="318.529" r="7.57461" stroke-width="0.5" stroke="black" fill="grey"/>
  <circle cx="347.321" cy="318.529" r="3.52306" stroke-width="0.5" stroke="grey" fill="grey"/>
   </g>
   <g id="cell206">
  <circle cx="475.135" cy="194.894" r="5.41786" stroke-width="0.5" stroke="black" fill="grey"/>
   </g>
   <g id="cell207">
  <circle cx="257.998" cy="208.962" r="8.16238" stroke-width="0.5" stroke="black" fill="grey"/>
  <circle cx="257.998" cy="208.962" r="4.65421" stroke-width="0.5" stroke="grey" fill="grey"/>
   </g>
   <g id="cell216">
  <circle cx="973.073" cy="229.939" r="7.50093" stroke-width="0.5" stroke="black" fill="grey"/>
  <circle cx="973.073" cy="229.939" r="3.36173" stroke-width="0.5" stroke="grey" fill="grey"/>
   </g>
   <g id="cell223">
  <circle cx="385.844" cy="551.804" r="4.30438" stroke-width="0.5" stroke="black" fill="grey"/>
   </g>
   <g id="cell224">
  <circle cx="312.433" cy="250.881" r="5.11968" stroke-width="0.5" stroke="black" fill="grey"/>
   </g>
   <g id="cell234">
  <circle cx="417.999" cy="433.087" r="5.19256" stroke-width="0.5" stroke="black" fill="grey"/>
   </g>
   <g id="cell247">
  <circle cx="739.891" cy="381.234" r="8.29225" stroke-width="0.5" stroke="black" fill="grey"/>
  <circle cx="739.891" cy="381.234" r="4.87838" stroke-width="0.5" stroke="grey" fill="grey"/>
   </g>
   <g id="cell265">
  <circle cx="354.491" cy="143.16" r="7.03175" stroke-width="0.5" stroke="black" fill="grey"/>
  <circle cx="354.491" cy="143.16" r="2.11727" stroke-width="0.5" stroke="grey" fill="grey"/>
   </g>
   <g id="cell270">
  <circle cx="323.242" cy="641.873" r="6.35328" stroke-width="0.5" stroke="black" fill="grey"/>
   </g>
   <g id="cell278">
  <circle cx="379.81" cy="334.79" r="8.38983" stroke-width="0.5" stroke="black" fill="grey"/>
  <circle cx="379.81" cy="334.79" r="5.04247" stroke-width="0.5" stroke="grey" fill="grey"/>
   </g>
   <g id="cell286">
  <circle cx="739.456" cy="367.579" r="6.90516" stroke-width="0.5" stroke="black" fill="grey"/>
  <circle cx="739.456" cy="367.579" r="1.64878" stroke-width="0.5" stroke="grey" fill="grey"/>
   </g>
   <g id="cell336">
  <circle cx="406.643" cy="234.227" r="7.64362" stroke-width="0.5" stroke="black" fill="grey"/>
  <circle cx="406.643" cy="234.227" r="3.66909" stroke-width="0.5" stroke="grey" fill="grey"/>
   </g>
   <g id="cell344">
  <circle cx="558.427" cy="176.322" r="8.07979" stroke-width="0.5" stroke="black" fill="grey"/>
  <circle cx="558.427" cy="176.322" r="4.50781" stroke-width="0.5" stroke="grey" fill="grey"/>
   </g>
   <g id="cell360">
  <circle cx="910.471" cy="224.104" r="8.26532" stroke-width="0.5" stroke="black" fill="grey"/>
  <circle cx="910.471" cy="224.104" r="4.83247" stroke-width="0.5" stroke="grey" fill="grey"/>
   </g>
   <g id="cell373">
  <circle cx="306.262" cy="253.514" r="4.48704" stroke-width="0.5" stroke="black" fill="grey"/>
   </g>
   <g id="cell376">
  <circle cx="279.352" cy="180.445" r="7.34162" stroke-width="0.5" stroke="black" fill="grey"/>
  <circle cx="279.352" cy="180.445" r="2.98943" stroke-width="0.5" stroke="grey" fill="grey"/>
   </g>
   <g id="cell377">
  <circle cx="350.273" cy="306.823" r="7.54945" stroke-width="0.5" stroke="black" fill="grey"/>
  <circle cx="350.273" cy="306.823" r="3.46864" stroke-width="0.5" stroke="grey" fill="grey"/>
   </g>
   <g id="cell379">
  <circle cx="594.174" cy="394.612" r="1.7134" stroke-width="0.5" stroke="black" fill="grey"/>
   </g>
   <g id="cell381">
  <circle cx="375.264" cy="275.825" r="6.03229" stroke-width="0.5" stroke="black" fill="grey"/>
   </g>
   <g id="cell382">
  <circle cx="641.624" cy="341.731" r="5.51277" stroke-width="0.5" stroke="black" fill="grey"/>
   </g>
   <g id="cell396">
  <circle cx="29.8358" cy="283.533" r="7.80819" stroke-width="0.5" stroke="black" fill="grey"/>
  <circle cx="29.8358" cy="283.533" r="4.00064" stroke-width="0.5" stroke="grey" fill="grey"/>
   </g>
   <g id="cell410">
  <circle cx="553.184" cy="409.434" r="7.59132" stroke-width="0.5" stroke="black" fill="grey"/>
  <circle cx="553.184" cy="409.434" r="3.55884" stroke-width="0.5" stroke="grey" fill="grey"/>
   </g>
   <g id="cell423">
  <circle cx="398.948" cy="112.519" r="8.31038" stroke-width="0.5" stroke="black" fill="grey"/>
  <circle cx="398.948" cy="112.519" r="4.90915" stroke-width="0.5" stroke="grey" fill="grey"/>
   </g>
   <g id="cell425">
  <circle cx="700.088" cy="192.479" r="8.30942" stroke-width="0.5" stroke="black" fill="grey"/>
  <circle cx="700.088" cy="192.479" r="4.90751" stroke-width="0.5" stroke="grey" fill="grey"/>
   </g>
   <g id="cell433">
  <circle cx="770.013" cy="174.029" r="7.01296" stroke-width="0.5" stroke="black" fill="grey"/>
  <circle cx="770.013" cy="174.029" r="2.05401" stroke-width="0.5" stroke="grey" fill="grey"/>
   </g>
   <g id="cell442">
  <circle cx="450.821" cy="240.136" r="7.30192" stroke-width="0.5" stroke="black" fill="grey"/>
  <circle cx="450.821" cy="240.136" r="2.89057" stroke-width="0.5" stroke="grey" fill="grey"/>
   </g>
   <g id="cell452">
  <circle cx="1029.65" cy="206.521" r="6.55795" stroke-width="0.5" stroke="black" fill="grey"/>
   </g>
   <g id="cell454">
  <circle cx="341.353" cy="340.977" r="6.71715" stroke-width="0.5" stroke="black" fill="grey"/>
  <circle cx="341.353" cy="340.977" r="0.396666" stroke-width="0.5" stroke="grey" fill="grey"/>
   </g>
   <g id="cell455">
  <circle cx="770.133" cy="299.223" r="8.08683" stroke-width="0.5" stroke="black" fill="grey"/>
  <circle cx="770.133" cy="299.223" r="4.52041" stroke-width="0.5" stroke="grey" fill="grey"/>
   </g>
   <g id="cell478">
  <circle cx="494.407" cy="303.23" r="3.9941" stroke-width="0.5" stroke="black" fill="grey"/>
   </g>
   <g id="cell483">
  <circle cx="825.421" cy="594.873" r="6.93609" stroke-width="0.5" stroke="black" fill="grey"/>
  <circle cx="825.421" cy="594.873" r="1.77387" stroke-width="0.5" stroke="grey" fill="grey"/>
   </g>
   <g id="cell484">
  <circle cx="696.041" cy="76.1858" r="7.65926" stroke-width="0.5" stroke="black" fill="grey"/>
  <circle cx="696.041" cy="76.1858" r="3.70157" stroke-width="0.5" stroke="grey" fill="grey"/>
   </g>
   <g id="cell515">
  <circle cx="672.351" cy="162.317" r="5.27755" stroke-width="0.5" stroke="black" fill="grey"/>
   </g>
   <g id="cell547">
  <circle cx="731.881" cy="299.407" r="8.30535" stroke-width="0.5" stroke="black" fill="grey"/>
  <circle cx="731.881" cy="299.407" r="4.90062" stroke-width="0.5" stroke="grey" fill="grey"/>
   </g>
   <g id="cell574">
  <circle cx="820.561" cy="355.458" r="5.42168" stroke-width="0.5" stroke="black" fill="grey"/>
   </g>
   <g id="cell576">
  <circle cx="151.526" cy="244.489" r="5.11886" stroke-width="0.5" stroke="black" fill="grey"/>
   </g>
   <g id="cell588">
  <circle cx="934.113" cy="403.43" r="7.83446" stroke-width="0.5" stroke="black" fill="grey"/>
  <circle cx="934.113" cy="403.43" r="4.05168" stroke-width="0.5" stroke="grey" fill="grey"/>
   </g>
   <g id="cell593">
  <circle cx="380.965" cy="221.248" r="6.59596" stroke-width="0.5" stroke="black" fill="grey"/>
   </g>
   <g id="cell594">
  <circle cx="744.047" cy="341.505" r="7.90831" stroke-width="0.5" stroke="black" fill="grey"/>
  <circle cx="744.047" cy="341.505" r="4.19269" stroke-width="0.5" stroke="grey" fill="grey"/>
   </g>
   <g id="cell631">
  <circle cx="561.018" cy="244.613" r="7.22439" stroke-width="0.5" stroke="black" fill="grey"/>
  <circle cx="561.018" cy="244.613" r="2.6887" stroke-width="0.5" stroke="grey" fill="grey"/>
   </g>
   <g id="cell640">
  <circle cx="270.48" cy="255.019" r="8.36797" stroke-width="0.5" stroke="black" fill="grey"/>
  <circle cx="270.48" cy="255.019" r="5.00601" stroke-width="0.5" stroke="grey" fill="grey"/>
   </g>
   <g id="cell644">
  <circle cx="534.91" cy="446.781" r="8.36002" stroke-width="0.5" stroke="black" fill="grey"/>
  <circle cx="534.91" cy="446.781" r="4.99272" stroke-width="0.5" stroke="grey" fill="grey"/>
   </g>
   <g id="cell649">
  <circle cx="606.509" cy="403.845" r="7.49554" stroke-width="0.5" stroke="black" fill="grey"/>
  <circle cx="606.509" cy="403.845" r="3.34968" stroke-width="0.5" stroke="grey" fill="grey"/>
   </g>
   <g id="cell651">
  <circle cx="736.724" cy="282.23" r="5.61593" stroke-width="0.5" stroke="black" fill="grey"/>
   </g>
   <g id="cell652">
  <circle cx="923.126" cy="242.426" r="5.77399" stroke-width="0.5" stroke="black" fill="grey"/>
   </g>
   <g id="cell656">
  <circle cx="368.654" cy="142.879" r="8.34282" stroke-width="0.5" stroke="black" fill="grey"/>
  <circle cx="368.654" cy="142.879" r="4.96386" stroke-width="0.5" stroke="grey" fill="grey"/>
   </g>
   <g id="cell657">
  <circle cx="902.251" cy="608.154" r="0.906365" stroke-width="0.5" stroke="black" fill="grey"/>
   </g>
   <g id="cell667">
  <circle cx="567.188" cy="465.473" r="3.99897" stroke-width="0.5" stroke="black" fill="grey"/>
   </g>
   <g id="cell672">
  <circle cx="541.644" cy="272.567" r="5.23531" stroke-width="0.5" stroke="black" fill="grey"/>
   </g>
   <g id="cell685">
  <circle cx="755.923" cy="298.238" r="8.36341" stroke-width="0.5" stroke="black" fill="grey"/>
  <circle cx="755.923" cy="298.238" r="4.9984" stroke-width="0.5" stroke="grey" fill="grey"/>
   </g>
   <g id="cell700">
  <circle cx="585.802" cy="343.932" r="7.4477" stroke-width="0.5" stroke="black" fill="grey"/>
  <circle cx="585.802" cy="343.932" r="3.24123" stroke-width="0.5" stroke="grey" fill="grey"/>
   </g>
   <g id="cell717">
  <circle cx="280.218" cy="211.303" r="8.21108" stroke-width="0.5" stroke="black" fill="grey"/>
  <circle cx="280.218" cy="211.303" r="4.7391" stroke-width="0.5" stroke="grey" fill="grey"/>
   </g>
   <g id="cell720">
  <circle cx="357.735" cy="147.912" r="3.24509" stroke-width="0.5" stroke="black" fill="grey"/>
   </g>
   <g id="cell722">
  <circle cx="379.477" cy="170.983" r="6.84587" stroke-width="0.5" stroke="black" fill="grey"/>
  <circle cx="379.477" cy="170.983" r="1.37959" stroke-width="0.5" stroke="grey" fill="grey"/>
   </g>
   <g id="cell742">
  <circle cx="345.225" cy="259.562" r="3.33645" stroke-width="0.5" stroke="black" fill="grey"/>
   </g>
   <g id="cell756">
  <circle cx="690.656" cy="211.774" r="5.40644" stroke-width="0.5" stroke="black" fill="grey"/>
   </g>
   <g id="cell781">
  <circle cx="997.624" cy="63.74" r="7.51346" stroke-width="0.5" stroke="black" fill="grey"/>
  <circle cx="997.624" cy="63.74" r="3.3896" stroke-width="0.5" stroke="grey" fill="grey"/>
   </g>
   <g id="cell793">
  <circle cx="989.006" cy="329.748" r="6.65061" stroke-width="0.5" stroke="black" fill="grey"/>
   </g>
   <g id="cell811">
  <circle cx="514.469" cy="10.3705" r="3.21834" stroke-width="0.5" stroke="black" fill="grey"/>
   </g>
   <g id="cell813">
  <circle cx="824.336" cy="410.663" r="7.75069" stroke-width="0.5" stroke="black" fill="grey"/>
  <circle cx="824.336" cy="410.663" r="3.88723" stroke-width="0.5" stroke="grey" fill="grey"/>
   </g>
   <g id="cell820">
  <circle cx="365.48" cy="96.061" r="8.20887" stroke-width="0.5" stroke="black" fill="grey"/>
  <circle cx="365.48" cy="96.061" r="4.73528" stroke-width="0.5" stroke="grey" fill="grey"/>
   </g>
   <g id="cell827">
  <circle cx="271.408" cy="187.207" r="6.4245" stroke-width="0.5" stroke="black" fill="grey"/>
   </g>
   <g id="cell839">
  <circle cx="386.043" cy="403.565" r="7.23121" stroke-width="0.5" stroke="black" fill="grey"/>
  <circle cx="386.043" cy="403.565" r="2.70696" stroke-width="0.5" stroke="grey" fill="grey"/>
   </g>
   <g id="cell850">
  <circle cx="741.283" cy="227.221" r="7.22041" stroke-width="0.5" stroke="black" fill="grey"/>
  <circle cx="741.283" cy="227.221" r="2.678" stroke-width="0.5" stroke="grey" fill="grey"/>
   </g>
   <g id="cell861">
  <circle cx="475.863" cy="171.571" r="6.7666" stroke-width="0.5" stroke="black" fill="grey"/>
  <circle cx="475.863" cy="171.571" r="0.907803" stroke-width="0.5" stroke="grey" fill="grey"/>
   </g>
   <g id="cell866">
  <circle cx="1107.42" cy="242.314" r="4.058" stroke-width="0.5" stroke="black" fill="grey"/>
   </g>
   <g id="cell900">
  <circle cx="1017.58" cy="246.98" r="6.03976" stroke-width="0.5" stroke="black" fill="grey"/>
   </g>
   <g id="cell910">
  <circle cx="523.706" cy="301.56" r="7.75418" stroke-width="0.5" stroke="black" fill="grey"/>
  <circle cx="523.706" cy="301.56" r="3.89418" stroke-width="0.5" stroke="grey" fill="grey"/>
   </g>
   <g id="cell916">
  <circle cx="367.605" cy="298.536" r="6.5772" stroke-width="0.5" stroke="black" fill="grey"/>
   </g>
   <g id="cell918">
  <circle cx="562.126" cy="400.241" r="1.40285" stroke-width="0.5" stroke="black" fill="grey"/>
   </g>
   <g id="cell923">
  <circle cx="279.311" cy="285.677" r="6.96989" stroke-width="0.5" stroke="black" fill="grey"/>
  <circle cx="279.311" cy="285.677" r="1.90175" stroke-width="0.5" stroke="grey" fill="grey"/>
   </g>
   <g id="cell936">
  <circle cx="680.986" cy="366.006" r="8.35019" stroke-width="0.5" stroke="black" fill="grey"/>
  <circle cx="680.986" cy="366.006" r="4.97624" stroke-width="0.5" stroke="grey" fill="grey"/>
   </g>
   <g id="cell941">
  <circle cx="693.82" cy="469.164" r="8.06227" stroke-width="0.5" stroke="black" fill="grey"/>
  <circle cx="693.82" cy="469.164" r="4.47632" stroke-width="0.5" stroke="grey" fill="grey"/>
   </g>
   <g id="cell950">
  <circle cx="1005.64" cy="53.6351" r="6.02945" stroke-width="0.5" stroke="black" fill="grey"/>
   </g>
   <g id="cell981">
  <circle cx="593.948" cy="278.102" r="8.30194" stroke-width="0.5" stroke="black" fill="grey"/>
  <circle cx="593.948" cy="278.102" r="4.89485" stroke-width="0.5" stroke="grey" fill="grey"/>
   </g>
   <g id="cell990">
  <circle cx="724.787" cy="183.593" r="6.76197" stroke-width="0.5" stroke="black" fill="grey"/>
  <circle cx="724.787" cy="183.593" r="0.872624" stroke-width="0.5" stroke="grey" fill="grey"/>
   </g>
   <g id="cell992">
  <circle cx="658.519" cy="490.318" r="7.71408" stroke-width="0.5" stroke="black" fill="grey"/>
  <circle cx="658.519" cy="490.318" r="3.81371" stroke-width="0.5" stroke="grey" fill="grey"/>
   </g>
   <g id="cell998">
  <circle cx="486.178" cy="277.423" r="8.09537" stroke-width="0.5" stroke="black" fill="grey"/>
  <circle cx="486.178" cy="277.423" r="4.53567" stroke-width="0.5" stroke="grey" fill="grey"/>
   </g>
   <g id="cell1028">
  <circle cx="1011.06" cy="364.185" r="8.22128" stroke-width="0.5" stroke="black" fill="grey"/>
  <circle cx="1011.06" cy="364.185" r="4.75676" stroke-width="0.5" stroke="grey" fill="grey"/>
   </g>
   <g id="cell1029">
  <circle cx="757.96" cy="398.478" r="7.66742" stroke-width="0.5" stroke="black" fill="grey"/>
  <circle cx="757.96" cy="398.478" r="3.71841" stroke-width="0.5" stroke="grey" fill="grey"/>
   </g>
   <g id="cell1041">
  <circle cx="988.953" cy="249.181" r="7.39793" stroke-width="0.5" stroke="black" fill="grey"/>
  <circle cx="988.953" cy="249.181" r="3.12517" stroke-width="0.5" stroke="grey" fill="grey"/>
   </g>
   <g id="cell1052">
  <circle cx="829.331" cy="423.435" r="8.38394" stroke-width="0.5" stroke="black" fill="grey"/>
  <circle cx="829.331" cy="423.435" r="5.03267" stroke-width="0.5" stroke="grey" fill="grey"/>
   </g>
   <g id="cell1053">
  <circle cx="639.979" cy="312.673" r="7.48384" stroke-width="0.5" stroke="black" fill="grey"/>
  <circle cx="639.979" cy="312.673" r="3.32341" stroke-width="0.5" stroke="grey" fill="grey"/>
   </g>
   <g id="cell1060">
  <circle cx="1144.79" cy="162.108" r="6.50809" stroke-width="0.5" stroke="black" fill="grey"/>
   </g>
   <g id="cell1062">
  <circle cx="394.095" cy="43.0423" r="8.39013" stroke-width="0.5" stroke="black" fill="grey"/>
  <circle cx="394.095" cy="43.0423" r="5.04297" stroke-width="0.5" stroke="grey" fill="grey"/>
   </g>
   <g id="cell1091">
  <circle cx="255.465" cy="169.471" r="7.85939" stroke-width="0.5" stroke="black" fill="grey"/>
  <circle cx="255.465" cy="169.471" r="4.09967" stroke-width="0.5" stroke="grey" fill="grey"/>
   </g>
   <g id="cell1094">
  <circle cx="831.445" cy="322.338" r="8.34612" stroke-width="0.5" stroke="black" fill="grey"/>
  <circle cx="831.445" cy="322.338" r="4.96941" stroke-width="0.5" stroke="grey" fill="grey"/>
   </g>
   <g id="cell1124">
  <circle cx="802.078" cy="292.688" r="4.60475" stroke-width="0.5" stroke="black" fill="grey"/>
   </g>
   <g id="cell1127">
  <circle cx="401.146" cy="169.476" r="7.23154" stroke-width="0.5" stroke="black" fill="grey"/>
  <circle cx="401.146" cy="169.476" r="2.70785" stroke-width="0.5" stroke="grey" fill="grey"/>
   </g>
   <g id="cell1136">
  <circle cx="414.808" cy="263.669" r="7.10336" stroke-width="0.5" stroke="black" fill="grey"/>
  <circle cx="414.808" cy="263.669" r="2.34414" stroke-width="0.5" stroke="grey" fill="grey"/>
   </g>
   <g id="cell1141">
  <circle cx="895.934" cy="184.159" r="6.90368" stroke-width="0.5" stroke="black" fill="grey"/>
  <circle cx="895.934" cy="184.159" r="1.64257" stroke-width="0.5" stroke="grey" fill="grey"/>
   </g>
   <g id="cell1153">
  <circle cx="102.372" cy="213.525" r="8.16763" stroke-width="0.5" stroke="black" fill="grey"/>
  <circle cx="102.372" cy="213.525" r="4.66341" stroke-width="0.5" stroke="grey" fill="grey"/>
   </g>
   <g id="cell1160">
  <circle cx="922.954" cy="457.533" r="5.77745" stroke-width="0.5" stroke="black" fill="grey"/>
   </g>
   <g id="cell1164">
  <circle cx="289.6" cy="157.861" r="6.02454" stroke-width="0.5" stroke="black" fill="grey"/>
   </g>
   <g id="cell1184">
  <circle cx="353.783" cy="20.0124" r="7.62282" stroke-width="0.5" stroke="black" fill="grey"/>
  <circle cx="353.783" cy="20.0124" r="3.62555" stroke-width="0.5" stroke="grey" fill="grey"/>
   </g>
   <g id="cell1195">
  <circle cx="499.555" cy="271.861" r="3.10513" stroke-width="0.5" stroke="black" fill="grey"/>
   </g>
   <g id="cell1200">
  <circle cx="927.715" cy="482.121" r="7.97437" stroke-width="0.5" stroke="black" fill="grey"/>
  <circle cx="927.715" cy="482.121" r="4.316" stroke-width="0.5" stroke="grey" fill="grey"/>
   </g>
   <g id="cell1201">
  <circle cx="335.221" cy="174.741" r="8.3024" stroke-width="0.5" stroke="black" fill="grey"/>
  <circle cx="335.221" cy="174.741" r="4.89563" stroke-width="0.5" stroke="grey" fill="grey"/>
   </g>
   <g id="cell1212">
  <circle cx="472.316" cy="221.952" r="6.69332" stroke-width="0.5" stroke="black" fill="grey"/>
   </g>
   <g id="cell1216">
  <circle cx="719.121" cy="208.261" r="5.89531" stroke-width="0.5" stroke="black" fill="grey"/>
   </g>
   <g id="cell1222">
  <circle cx="272.615" cy="320.848" r="2.8086" stroke-width="0.5" stroke="black" fill="grey"/>
   </g>
   <g id="cell1226">
  <circle cx="352.85" cy="223.183" r="8.33687" stroke-width="0.5" stroke="black" fill="grey"/>
  <circle cx="352.85" cy="223.183" r="4.95386" stroke-width="0.5" stroke="grey" fill="grey"/>
   </g>
   <g id="cell1227">
  <circle cx="827.668" cy="580.864" r="8.16757" stroke-width="0.5" stroke="black" fill="grey"/>
  <circle cx="827.668" cy="580.864" r="4.66331" stroke-width="0.5" stroke="grey" fill="grey"/>
   </g>
   <g id="cell1242">
  <circle cx="913.491" cy="278.399" r="8.06589" stroke-width="0.5" stroke="black" fill="grey"/>
  <circle cx="913.491" cy="278.399" r="4.48285" stroke-width="0.5" stroke="grey" fill="grey"/>
   </g>
   <g id="cell1245">
  <circle cx="198.388" cy="214.456" r="6.34795" stroke-width="0.5" stroke="black" fill="grey"/>
   </g>
   <g id="cell1254">
  <circle cx="449.207" cy="542.681" r="7.45349" stroke-width="0.5" stroke="black" fill="grey"/>
  <circle cx="449.207" cy="542.681" r="3.25451" stroke-width="0.5" stroke="grey" fill="grey"/>
   </g>
   <g id="cell1264">
  <circle cx="61.5803" cy="159.844" r="7.92796" stroke-width="0.5" stroke="black" fill="grey"/>
  <circle cx="61.5803" cy="159.844" r="4.22964" stroke-width="0.5" stroke="grey" fill="grey"/>
   </g>
   <g id="cell1276">
  <circle cx="945.393" cy="293.329" r="3.53745" stroke-width="0.5" stroke="black" fill="grey"/>
   </g>
   <g id="cell1281">
  <circle cx="888.874" cy="340.476" r="7.81648" stroke-width="0.5" stroke="black" fill="grey"/>
  <circle cx="888.874" cy="340.476" r="4.01679" stroke-width="0.5" stroke="grey" fill="grey"/>
   </g>
   <g id="cell1324">
  <circle cx="1021.65" cy="192.5" r="8.28899" stroke-width="0.5" stroke="black" fill="grey"/>
  <circle cx="1021.65" cy="192.5" r="4.87285" stroke-width="0.5" stroke="grey" fill="grey"/>
   </g>
   <g id="cell1334">
  <circle cx="471.169" cy="247.118" r="6.16069" stroke-width="0.5" stroke="black" fill="grey"/>
   </g>
   <g id="cell1336">
  <circle cx="644.663" cy="326.043" r="7.76535" stroke-width="0.5" stroke="black" fill="grey"/>
  <circle cx="644.663" cy="326.043" r="3.91636" stroke-width="0.5" stroke="grey" fill="grey"/>
   </g>
   <g id="cell1341">
  <circle cx="716.983" cy="305.944" r="3.93423" stroke-width="0.5" stroke="black" fill="grey"/>
   </g>
   <g id="cell1347">
  <circle cx="402.656" cy="327.075" r="7.50368" stroke-width="0.5" stroke="black" fill="grey"/>
  <circle cx="402.656" cy="327.075" r="3.36787" stroke-width="0.5" stroke="grey" fill="grey"/>
   </g>
   <g id="cell1355">
  <circle cx="293.962" cy="250.243" r="8.34408" stroke-width="0.5" stroke="black" fill="grey"/>
  <circle cx="293.962" cy="250.243" r="4.96597" stroke-width="0.5" stroke="grey" fill="grey"/>
   </g>
   <g id="cell1372">
  <circle cx="924.175" cy="327.702" r="7.87639" stroke-width="0.5" stroke="black" fill="grey"/>
  <circle cx="924.175" cy="327.702" r="4.13216" stroke-width="0.5" stroke="grey" fill="grey"/>
   </g>
   <g id="cell1394">
  <circle cx="251.201" cy="51.0551" r="8.3867" stroke-width="0.5" stroke="black" fill="grey"/>
  <circle cx="251.201" cy="51.0551" r="5.03726" stroke-width="0.5" stroke="grey" fill="grey"/>
   </g>
   <g id="cell1401">
  <circle cx="845.131" cy="365.366" r="6.78653" stroke-width="0.5" stroke="black" fill="grey"/>
  <circle cx="845.131" cy="365.366" r="1.04605" stroke-width="0.5" stroke="grey" fill="grey"/>
   </g>
   <g id="cell1408">
  <circle cx="274.553" cy="224.978" r="6.59499" stroke-width="0.5" stroke="black" fill="grey"/>
   </g>
   <g id="cell1412">
  <circle cx="463.942" cy="217.209" r="4.20714" stroke-width="0.5" stroke="black" fill="grey"/>
   </g>
   <g id="cell1413">
  <circle cx="931.368" cy="295.943" r="7.62815" stroke-width="0.5" stroke="black" fill="grey"/>
  <circle cx="931.368" cy="295.943" r="3.63675" stroke-width="0.5" stroke="grey" fill="grey"/>
   </g>
   <g id="cell1421">
  <circle cx="702.415" cy="222.706" r="8.02884" stroke-width="0.5" stroke="black" fill="grey"/>
  <circle cx="702.415" cy="222.706" r="4.41582" stroke-width="0.5" stroke="grey" fill="grey"/>
   </g>
   <g id="cell1424">
  <circle cx="591.575" cy="409.399" r="6.85539" stroke-width="0.5" stroke="black" fill="grey"/>
  <circle cx="591.575" cy="409.399" r="1.42604" stroke-width="0.5" stroke="grey" fill="grey"/>
   </g>
   <g id="cell1425">
  <circle cx="527.652" cy="280.586" r="8.23219" stroke-width="0.5" stroke="black" fill="grey"/>
  <circle cx="527.652" cy="280.586" r="4.77559" stroke-width="0.5" stroke="grey" fill="grey"/>
   </g>
   <g id="cell1436">
  <circle cx="465.82" cy="463.307" r="8.29424" stroke-width="0.5" stroke="black" fill="grey"/>
  <circle cx="465.82" cy="463.307" r="4.88177" stroke-width="0.5" stroke="grey" fill="grey"/>
   </g>
   <g id="cell1441">
  <circle cx="376.399" cy="189.542" r="8.19334" stroke-width="0.5" stroke="black" fill="grey"/>
  <circle cx="376.399" cy="189.542" r="4.70831" stroke-width="0.5" stroke="grey" fill="grey"/>
   </g>
   <g id="cell1457">
  <circle cx="398.994" cy="417.839" r="7.56294" stroke-width="0.5" stroke="black" fill="grey"/>
  <circle cx="398.994" cy="417.839" r="3.4979" stroke-width="0.5" stroke="grey" fill="grey"/>
   </g>
   <g id="cell1472">
  <circle cx="597.734" cy="491.288" r="8.39081" stroke-width="0.5" stroke="black" fill="grey"/>
  <circle cx="597.734" cy="491.288" r="5.04411" stroke-width="0.5" stroke="grey" fill="grey"/>
   </g>
   <g id="cell1474">
  <circle cx="602.186" cy="244.113" r="8.10501" stroke-width="0.5" stroke="black" fill="grey"/>
  <circle cx="602.186" cy="244.113" r="4.55286" stroke-width="0.5" stroke="grey" fill="grey"/>
   </g>
   <g id="cell1480">
  <circle cx="806.85" cy="203.573" r="1.36204" stroke-width="0.5" stroke="black" fill="grey"/>
   </g>
   <g id="cell1496">
  <circle cx="315.369" cy="343.335" r="5.95221" stroke-width="0.5" stroke="black" fill="grey"/>
   </g>
   <g id="cell1498">
  <circle cx="1139.27" cy="362.827" r="7.60141" stroke-width="0.5" stroke="black" fill="grey"/>
  <circle cx="1139.27" cy="362.827" r="3.58032" stroke-width="0.5" stroke="grey" fill="grey"/>
   </g>
   <g id="cell1506">
  <circle cx="1110.14" cy="283.871" r="4.80497" stroke-width="0.5" stroke="black" fill="grey"/>
   </g>
   <g id="cell1507">
  <circle cx="834.217" cy="401.204" r="8.21976" stroke-width="0.5" stroke="black" fill="grey"/>
  <circle cx="834.217" cy="401.204" r="4.75413" stroke-width="0.5" stroke="grey" fill="grey"/>
   </g>
   <g id="cell1511">
  <circle cx="151.064" cy="191.57" r="5.58226" stroke-width="0.5" stroke="black" fill="grey"/>
   </g>
   <g id="cell1518">
  <circle cx="560.842" cy="455.027" r="8.14848" stroke-width="0.5" stroke="black" fill="grey"/>
  <circle cx="560.842" cy="455.027" r="4.6298" stroke-width="0.5" stroke="grey" fill="grey"/>
   </g>
   <g id="cell1528">
  <circle cx="347.917" cy="163.404" r="8.09524" stroke-width="0.5" stroke="black" fill="grey"/>
  <circle cx="347.917" cy="163.404" r="4.53544" stroke-width="0.5" stroke="grey" fill="grey"/>
   </g>
   <g id="cell1541">
  <circle cx="775.068" cy="386.828" r="8.31484" stroke-width="0.5" stroke="black" fill="grey"/>
  <circle cx="775.068" cy="386.828" r="4.91669" stroke-width="0.5" stroke="grey" fill="grey"/>
   </g>
   <g id="cell1559">
  <circle cx="812.597" cy="393.3" r="7.65238" stroke-width="0.5" stroke="black" fill="grey"/>
  <circle cx="812.597" cy="393.3" r="3.6873" stroke-width="0.5" stroke="grey" fill="grey"/>
   </g>
   <g id="cell1571">
  <circle cx="853.147" cy="435.002" r="6.2377" stroke-width="0.5" stroke="black" fill="grey"/>
   </g>
   <g id="cell1587">
  <circle cx="273.339" cy="472.056" r="8.3874" stroke-width="0.5" stroke="black" fill="grey"/>
  <circle cx="273.339" cy="472.056" r="5.03843" stroke-width="0.5" stroke="grey" fill="grey"/>
   </g>
   <g id="cell1599">
  <circle cx="185.11" cy="218.592" r="8.1095" stroke-width="0.5" stroke="black" fill="grey"/>
  <circle cx="185.11" cy="218.592" r="4.56085" stroke-width="0.5" stroke="grey" fill="grey"/>
   </g>
   <g id="cell1605">
  <circle cx="530.313" cy="194.52" r="8.20324" stroke-width="0.5" stroke="black" fill="grey"/>
  <circle cx="530.313" cy="194.52" r="4.72551" stroke-width="0.5" stroke="grey" fill="grey"/>
   </g>
   <g id="cell1609">
  <circle cx="482.776" cy="194.873" r="5.3221" stroke-width="0.5" stroke="black" fill="grey"/>
   </g>
   <g id="cell1615">
  <circle cx="695.545" cy="167.547" r="6.21054" stroke-width="0.5" stroke="black" fill="grey"/>
   </g>
   <g id="cell1630">
  <circle cx="575.033" cy="402.63" r="7.13647" stroke-width="0.5" stroke="black" fill="grey"/>
  <circle cx="575.033" cy="402.63" r="2.44264" stroke-width="0.5" stroke="grey" fill="grey"/>
   </g>
   <g id="cell1637">
  <circle cx="547.251" cy="257.878" r="7.15307" stroke-width="0.5" stroke="black" fill="grey"/>
  <circle cx="547.251" cy="257.878" r="2.49073" stroke-width="0.5" stroke="grey" fill="grey"/>
   </g>
   <g id="cell1638">
  <circle cx="667.576" cy="240.678" r="8.36555" stroke-width="0.5" stroke="black" fill="grey"/>
  <circle cx="667.576" cy="240.678" r="5.00196" stroke-width="0.5" stroke="grey" fill="grey"/>
   </g>
   <g id="cell1640">
  <circle cx="738.429" cy="423.344" r="8.37678" stroke-width="0.5" stroke="black" fill="grey"/>
  <circle cx="738.429" cy="423.344" r="5.02072" stroke-width="0.5" stroke="grey" fill="grey"/>
   </g>
   <g id="cell1645">
  <circle cx="516.598" cy="327.118" r="5.78556" stroke-width="0.5" stroke="black" fill="grey"/>
   </g>
   <g id="cell1659">
  <circle cx="330.179" cy="611.392" r="4.90873" stroke-width="0.5" stroke="black" fill="grey"/>
   </g>
   <g id="cell1682">
  <circle cx="816.866" cy="292.998" r="3.11936" stroke-width="0.5" stroke="black" fill="grey"/>
   </g>
   <g id="cell1688">
  <circle cx="376.071" cy="253.32" r="7.09805" stroke-width="0.5" stroke="black" fill="grey"/>
  <circle cx="376.071" cy="253.32" r="2.328" stroke-width="0.5" stroke="grey" fill="grey"/>
   </g>
   <g id="cell1691">
  <circle cx="301.947" cy="162.139" r="8.09311" stroke-width="0.5" stroke="black" fill="grey"/>
  <circle cx="301.947" cy="162.139" r="4.53164" stroke-width="0.5" stroke="grey" fill="grey"/>
   </g>
   <g id="cell1697">
  <circle cx="801.167" cy="322.495" r="7.14173" stroke-width="0.5" stroke="black" fill="grey"/>
  <circle cx="801.167" cy="322.495" r="2.45797" stroke-width="0.5" stroke="grey" fill="grey"/>
   </g>
   <g id="cell1701">
  <circle cx="411.248" cy="294.251" r="7.10432" stroke-width="0.5" stroke="black" fill="grey"/>
  <circle cx="411.248" cy="294.251" r="2.34706" stroke-width="0.5" stroke="grey" fill="grey"/>
   </g>
   <g id="cell1727">
  <circle cx="399.689" cy="288.576" r="8.35753" stroke-width="0.5" stroke="black" fill="grey"/>
  <circle cx="399.689" cy="288.576" r="4.98854" stroke-width="0.5" stroke="grey" fill="grey"/>
   </g>
   <g id="cell1736">
  <circle cx="1033.22" cy="183.894" r="8.0311" stroke-width="0.5" stroke="black" fill="grey"/>
  <circle cx="1033.22" cy="183.894" r="4.41994" stroke-width="0.5" stroke="grey" fill="grey"/>
   </g>
   <g id="cell1753">
  <circle cx="333.041" cy="233.069" r="7.00956" stroke-width="0.5" stroke="black" fill="grey"/>
  <circle cx="333.041" cy="233.069" r="2.04235" stroke-width="0.5" stroke="grey" fill="grey"/>
   </g>
   <g id="cell1757">
  <circle cx="1026.85" cy="244.446" r="6.33665" stroke-width="0.5" stroke="black" fill="grey"/>
   </g>
   <g id="cell1768">
  <circle cx="756.067" cy="242.189" r="7.82553" stroke-width="0.5" stroke="black" fill="grey"/>
  <circle cx="756.067" cy="242.189" r="4.03438" stroke-width="0.5" stroke="grey" fill="grey"/>
   </g>
   <g id="cell1796">
  <circle cx="492.853" cy="264.025" r="8.30867" stroke-width="0.5" stroke="black" fill="grey"/>
  <circle cx="492.853" cy="264.025" r="4.90625" stroke-width="0.5" stroke="grey" fill="grey"/>
   </g>
   <g id="cell1812">
  <circle cx="398.534" cy="301.727" r="4.61529" stroke-width="0.5" stroke="black" fill="grey"/>
   </g>
   <g id="cell1813">
  <circle cx="252.107" cy="241.745" r="8.28805" stroke-width="0.5" stroke="black" fill="grey"/>
  <circle cx="252.107" cy="241.745" r="4.87124" stroke-width="0.5" stroke="grey" fill="grey"/>
   </g>
   <g id="cell1858">
  <circle cx="642.737" cy="121.973" r="6.74843" stroke-width="0.5" stroke="black" fill="grey"/>
  <circle cx="642.737" cy="121.973" r="0.760669" stroke-width="0.5" stroke="grey" fill="grey"/>
   </g>
  </g>
 </g>
  <rect x="965" y="1449" width="200" height="14" stroke-width="2.8" stroke="rgb(255,255,255)" fill="rgb(0,0,0)"/>
  <text x="973.75" y="1440.25"
   font-family="Arial" font-size="35" fill="black" >
   200 &#956;m
  </text>
  <text x="35" y="1463"
   font-family="Arial" font-size="26.25" fill="black" >
   0 days, 0 hours, 13 minutes, and 0.3732 seconds
  </text>
  <rect x="0" y="98" width="1200" height="1400" stroke-width="2.8" stroke="rgb(0,0,0)" fill="none"/>
</svg>
